<?xml version="1.0" encoding="utf-8"?>
<!-- Generator: Adobe Illustrator 27.9.6, SVG Export Plug-In . SVG Version: 9.03 Build 54986)  -->
<svg version="1.1" id="Layer_1" xmlns="http://www.w3.org/2000/svg" xmlns:xlink="http://www.w3.org/1999/xlink" x="0px" y="0px"
	 viewBox="0 0 152 159" style="enable-background:new 0 0 152 159;" xml:space="preserve">
<style type="text/css">
	.st0{fill:#F3C727;}
	.st1{fill:#33312B;}
	.st2{fill:none;stroke:#33312B;stroke-width:3;stroke-miterlimit:10;}
	.st3{fill:none;}
</style>
<path class="st0" d="M76.01,7.47c18.73-0.09,38.4,0.13,57.09,0.08c8.44-0.02,13.24-1.17,18.72-7.55c0,40.11,0,80.23,0,120.34
	c0,20.52-18.26,27.66-22.98,29.65c-6.93,2.92-16.27,2.73-23.87,2.24c-13.26-0.86-18.83-4.48-28.96,6.57V7.47z"/>
<path class="st1" d="M76.01,7.47C57.28,7.38,37.61,7.6,18.91,7.55C10.47,7.52,5.67,6.38,0.2,0c0,40.11,0,80.23,0,120.34
	c0,20.52,18.26,27.66,22.98,29.65c6.93,2.92,16.27,2.73,23.87,2.24c13.26-0.86,18.83-4.48,28.96,6.57V7.47z"/>
<path class="st0" d="M8.09,81.3c0,0,0.29-0.8,1,2.32c0,0,1.07,3.22,2.96,3.71c0.4,0.1,0.7,1.1,1.79-0.5c0,0,1.9-3.61-1.19-5.01
	l-0.4-0.11l-0.29-0.3v-1.9c0,0,0-1.5-0.99-2.2c0,0-0.99-4.82-0.4-5.92l0.7-1.51c0,0,1.59-1.1,1.39,0.7c0,0,0.4,2.72,1.39,3.12
	c0,0,1.7,1.49,1.7,2.39c0,0,0.39,1.51,1.08,1.92l1.29,1.2c0,0,1.39,0.8,1.69-0.5c0,0,2.58-4.22-1.19-5.83l-0.41-0.2l-0.2-0.3v-0.39
	l-0.2-0.42l-0.19-0.39l-0.21-0.41l-0.3-0.49l-0.09-0.4l0.2-0.31l4.66,0.41c0,0,1.68-0.2,1.98,1.81c0,0,1.68,8.52,14.2,18.35
	c0,0,3.07,1.31,1.77,3.89c0,0-1.19,6.43,3.08,13.45c0,0,3.27,6.12-1.69,11.23l0.11,0.4c0,0-3.77,3.81-3.87,4.22
	c0,0-1.4,1.81-2.48,1.71c0,0-1,1-1,1.4l-0.1,0.39l-0.1,0.31l-0.2,0.3c-0.09,0.6,0,0.79,0,0.79l0.2,0.31l0.29,0.1l1.98,0.1
	c0,0,2.09,0,2.19-1.4c0,0-0.1-1.71,1.99-2.01c0,0,1.28,0.1,1.78-1.3c0,0,4.76-8.62,6.55-10.73c0,0,0.89-0.69,0.39-2l-0.69-1.51
	l0.09-2.31l0.4-0.09c0,0,2.97,3.71,3.37,3.81c0,0,1.59,1.21,0.1,4.91c0,0-1.09,3.41-3.97,6.62c0,0-1.19,1.2-1.89,2.5
	c0,0-1.87,2.62-2.38,2.62c-0.81,0-0.2,0.39-0.2,0.39s-0.3,0.1-0.3,0.4c0,0.3-0.1-0.1-0.1,0.5c0,0.61,0.1,0.61,0.1,0.61v0.3l0.49,0.2
	h0.3l2.27,0.11c0,0,1.1,0,1.39-1.41c0,0-0.1-1.5,1.19-1.4c0,0,1.59,0.5,2.58-3.61c0,0,0.2-3.01,5.26-8.33c0,0,2.88-1.2,0.4-4.51
	c-2.48-3.31-3.08-7.02-3.08-7.02s-0.3-1.2,1.19-2.21c0,0,5.54-3.21,4.47-9.22c0,0,0.29-1.2,1.59-0.5c0,0,0.88,0.39,0.69,3.09
	l-0.1,0.31c0,0-0.1-0.11-0.1,0.3c0,0.39-0.19,0.71-0.19,0.71l-0.2,0.49l-0.19,0.4v0.4l-0.1,0.4l-0.11,0.6l-0.09,0.3l-0.12,0.41
	l-0.09,0.39l-0.19,0.61v0.5l-0.2,0.29c0,0-0.3,0-0.2,0.3c0.1,0.3-0.1,0.6-0.1,0.6l-0.1,0.6l-0.09,0.4l-0.1,0.5l-0.1,0.4l-0.1,0.39
	l-0.11,0.4l-0.1,0.3v0.41l-0.19,0.3l-0.1,7.02l-0.1,0.3v0.5l-0.1,0.31L59,114.4v0.6c0,0,0,0.1,0,0.4c0,0.3,0,0.4,0,0.4l0.1,0.3
	c0.2,0.4,0,0,0.3,0.51c0.29,0.49,0.19,0.4,0.19,0.4v0.4l0.1,0.29l0.21,0.42v0.3l0.21,0.4l0.09,0.5v0.3l0.3,0.61l0.3,0.49
	c0,0.5,0,0.61,0,0.61l0.19,0.3c0.09,0.49-0.29-0.1,0.21,0.71c0,0,1.59,0.91,1.59,2c0,0.49,0.99,1.2,1.39,1.4l1.58,1.4
	c0.4,0,1.3,1.4,1.78-1c0.51-2.42-0.09-0.4-0.09-0.4l-0.1-0.31v-0.39l-0.1-0.3l0.1-0.3l0.1-0.29l-0.1-0.31l-0.1-0.3l-0.3-0.41v-0.29
	v-0.3l0.2-0.41l0.1-0.49l-0.2-0.41l-0.21-0.5v-0.41v-0.5l-0.09-0.29l-0.19-0.41l-0.1-0.4l-0.11-0.4l-0.09-0.5v-1.71l0.2-0.5
	c0,0-0.11-0.31,0.1-0.7c0.19-0.41,0.19-0.6,0.19-0.6l0.3-0.2l0.1-0.41l-0.1-0.4v-0.49v-0.51v-0.6l0.1-0.4l0.2-0.31l0.1-0.41
	l0.2-0.48v-0.51l0.1-0.6v-0.5l0.1-0.41l0.2-0.29l0.1-0.4l0.19-0.41v-0.29l-0.19-0.51v-0.49c0,0,0.1,0,0.1-0.31c0-0.3,0-0.6,0-0.6
	l-0.1-0.4l0.1-0.6c0,0,0-0.21,0.1-0.5c0.1-0.3,0.29-0.81,0.29-0.81l0.1-0.5v-0.41v-0.49l0.1-0.4l0.1-0.4l-0.1-0.61l-0.1-0.5
	l-0.1-0.4l-0.19-0.31l-0.1-0.29v-0.5l-0.1-0.5l-0.3-0.4l-0.2-0.6l-0.1-0.5l-0.3-0.41l0.1-0.4l0.09-0.7l-0.19-0.4
	c0,0-2.48-5.82-7.34-4.2c0,0-1.3-5.53-4.96-7.73c0,0-11.31-10.24-9.43-18.35l0.2-0.41l0.19-0.4c0,0,0.1-0.1,0.1-0.4
	c0-0.3,0-0.5,0-0.5s0.1-0.19,0.1-0.5s0-0.31,0-0.31l-0.1-0.4v-0.31l0.3-0.31l0.2-0.49l0.11-0.3l0.1-0.5c0,0-0.2,0.29-0.2-0.3
	c0-0.6,0-0.1,0-0.71c0-0.6-0.2-0.3-0.09-0.6c0.09-0.3,0.19-0.6,0.19-0.6v-0.6l-0.11-0.71v-0.49l0.2-0.51l0.1-0.5l0.2-0.61l0.11-0.59
	v-0.8l-0.11-0.8L47,50.42v-0.4c0,0,0.09,0.21-0.1-0.3c-0.2-0.49-0.1-0.71-0.1-0.71l0.2-0.5l0.09-0.5l0.11-0.3l0.1-0.6l-0.2-0.5V46.1
	L47,45.71l-0.2-0.3v-0.61l-0.2-0.6L46.5,43.4l-0.11-0.71l0.11-0.39l-0.2-0.5v-0.5l-0.2-0.51c0,0-0.1-0.2-0.1-0.49
	c0-0.31,0-1.01,0-1.01l0.2-0.6l-0.1-0.6L46,37.78l-0.19-0.29c0,0-0.2,0.29-0.31-0.31c-0.1-0.6-0.29-1.1-0.29-1.1s0.1-0.1,0-0.4
	c-0.1-0.3-0.39-0.5-0.39-0.5v-0.5l-0.11-0.6l-0.09-0.31l-0.2-0.6l-0.3-0.29l-0.2-0.41l-0.3-0.4l-0.1-0.3c0,0-2.38-3.41-3.67-4.72
	l-0.39-4.1l-1.49,2.81c0,0-1.39,1.49-1.89-0.31l-0.69-2.1l-0.6,1.71c0,0-0.99,1.31-1.78,1.41c0,0-1.69,1.5-1.79,1.8
	c-0.1,0.3-0.1,0.3-0.1,0.3s-1.79,0.79-1.49,0.19c0,0-1.39,1.11-1.78,1.82v0.3l-0.2,0.3c0,0-3.84,4.01-5,4.61
	c0,0-3.71,0.95-2.64,4.69l0.8,1.34c0,0,1.32,2.67,4.23,0.26l3.57-1.47c0,0,2.85,0.56,2.64,1.21c-0.13,0.4-1.05,9.1-8.2,10.56
	l-3.58,5.22l-5.29,0.13c0,0-3.17-0.13-3.04,4.95c0,0,1.59,2.66-1.72,3.07c0,0-2.78,1.47-1.72,4.68c0,0,0.4,4.94,0,7.89
	c0,0,0.4,2.53,0.67,3.07"/>
<path class="st1" d="M133.77,50.49c0-0.05,0-0.09,0-0.14c0-0.14,0.01-0.28,0.01-0.42c0-4.86-1.72-10.58-4.57-15.5l0.61-0.38
	c0.08-0.05,0.16-0.11,0.23-0.17c0.02-0.02,0.05-0.05,0.07-0.07c0.04-0.04,0.08-0.09,0.12-0.13c0.02-0.03,0.05-0.06,0.07-0.1
	c0.03-0.04,0.05-0.08,0.07-0.12c0.02-0.04,0.05-0.08,0.07-0.13c0.01-0.02,0.01-0.04,0.02-0.06c0.05-0.12,0.08-0.25,0.09-0.37
	c0.16-0.63,0.08-1.41-0.19-1.88l-1.24-2.18c-0.4-0.7-1.27-0.99-2.01-0.67l-1.87,0.81l-4.19,2.21c-0.92,0.48-1.14,1.65-0.55,2.44
	c0.02,0.06,0.05,0.12,0.09,0.17c0.01,0.01,0.02,0.03,0.03,0.04c0.05,0.07,0.11,0.15,0.18,0.21c0.26,0.24,0.52,0.49,0.77,0.75
	c0.09,0.1,0.18,0.2,0.27,0.3c0.15,0.17,0.31,0.33,0.46,0.51c0.11,0.13,0.22,0.28,0.34,0.41c0.12,0.15,0.24,0.29,0.36,0.44
	c0.13,0.17,0.25,0.34,0.37,0.51c0.09,0.13,0.19,0.26,0.28,0.39c0.14,0.2,0.26,0.4,0.4,0.6c0.07,0.11,0.15,0.22,0.22,0.34
	c0.14,0.23,0.28,0.46,0.41,0.7c0.05,0.09,0.11,0.18,0.16,0.28c0.14,0.26,0.28,0.52,0.41,0.79c0.04,0.07,0.08,0.14,0.11,0.21
	c0.14,0.29,0.28,0.58,0.41,0.87c0.02,0.05,0.05,0.1,0.07,0.15c0.14,0.31,0.27,0.63,0.4,0.95c0.01,0.03,0.02,0.06,0.04,0.09
	c0.13,0.33,0.26,0.67,0.37,1.01c0,0.01,0.01,0.02,0.01,0.03c0.71,2.07,1.12,4.17,1.17,6.09c-0.28,7.65-6.55,14.15-14.25,14.15
	c-7.7,0-13.97-6.51-14.25-14.16c0.05-1.86,0.43-3.88,1.1-5.88c0-0.01,0.01-0.02,0.01-0.03c0.11-0.33,0.23-0.65,0.35-0.98
	c0.01-0.03,0.02-0.05,0.03-0.08c0.12-0.31,0.24-0.61,0.37-0.92c0.02-0.05,0.04-0.09,0.06-0.14c0.13-0.29,0.25-0.57,0.39-0.85
	c0.03-0.07,0.07-0.13,0.1-0.2c0.13-0.26,0.26-0.52,0.39-0.77c0.05-0.09,0.1-0.18,0.15-0.26c0.13-0.23,0.26-0.46,0.39-0.69
	c0.06-0.11,0.13-0.21,0.2-0.32c0.12-0.2,0.25-0.41,0.38-0.6c0.08-0.13,0.17-0.25,0.26-0.38c0.12-0.17,0.24-0.35,0.36-0.51
	c0.11-0.15,0.22-0.29,0.33-0.43c0.11-0.14,0.22-0.29,0.33-0.42c0.14-0.17,0.28-0.34,0.43-0.5c0.09-0.1,0.17-0.21,0.26-0.31
	c0.24-0.26,0.48-0.51,0.72-0.76c0.06-0.06,0.12-0.13,0.16-0.2c0.01-0.01,0.02-0.03,0.03-0.04c0.04-0.07,0.07-0.13,0.1-0.2
	c0.01-0.03,0.02-0.06,0.03-0.08c0,0,0-0.01,0-0.01c0.49-0.75,0.27-1.8-0.54-2.29l-3.66-2.22c-0.23-0.14-0.47-0.26-0.71-0.37
	l-1.93-0.84c-0.74-0.32-1.61-0.03-2.01,0.67l-1.24,2.18c-0.29,0.51-0.37,1.4-0.16,2.05c0.02,0.07,0.04,0.13,0.07,0.2
	c0.01,0.02,0.01,0.04,0.02,0.06c0.02,0.04,0.04,0.09,0.07,0.13c0.02,0.04,0.04,0.08,0.07,0.12c0.02,0.03,0.05,0.07,0.07,0.1
	c0.04,0.05,0.07,0.09,0.12,0.13c0.02,0.02,0.04,0.05,0.07,0.07c0.07,0.06,0.14,0.12,0.23,0.17l0.97,0.6l0.08,0.06
	c-2.76,4.85-4.41,10.45-4.41,15.21c0,0.14,0.01,0.28,0.01,0.42c0,0.16-0.01,0.32-0.01,0.48c0,11.16,9.05,20.22,20.22,20.22
	s20.22-9.05,20.22-20.22C133.78,50.71,133.77,50.6,133.77,50.49C133.77,50.49,133.77,50.49,133.77,50.49z M96.88,43.84
	c0.53,0.04,0.94,0.5,0.9,1.03c-0.04,0.53-0.5,0.94-1.03,0.9c-0.53-0.04-0.94-0.5-0.9-1.03C95.88,44.21,96.34,43.8,96.88,43.84z
	 M95.43,50.8c0.04-0.53,0.5-0.94,1.03-0.9c0.53,0.04,0.94,0.5,0.9,1.03c-0.04,0.53-0.5,0.94-1.03,0.9
	C95.8,51.8,95.4,51.34,95.43,50.8z M97.73,57.37c-0.53-0.04-0.94-0.5-0.9-1.03c0.04-0.53,0.5-0.94,1.03-0.9
	c0.53,0.04,0.94,0.5,0.9,1.03C98.73,57.01,98.26,57.41,97.73,57.37z M100.21,61.79c-0.53-0.04-0.94-0.5-0.9-1.03
	c0.04-0.53,0.5-0.94,1.03-0.9c0.53,0.04,0.94,0.5,0.9,1.03C101.2,61.42,100.74,61.83,100.21,61.79z M126.93,61.79
	c-0.53,0.04-1-0.37-1.03-0.9c-0.04-0.53,0.37-1,0.9-1.03c0.53-0.04,1,0.37,1.03,0.9C127.86,61.29,127.46,61.76,126.93,61.79z
	 M130.25,43.84c0.53-0.04,1,0.37,1.03,0.9c0.04,0.53-0.37,1-0.9,1.03c-0.53,0.04-1-0.37-1.03-0.9
	C129.32,44.34,129.72,43.88,130.25,43.84z M129.4,57.37c-0.53,0.04-1-0.37-1.03-0.9c-0.04-0.53,0.37-1,0.9-1.03
	c0.53-0.04,1,0.37,1.03,0.9C130.34,56.88,129.94,57.34,129.4,57.37z M130.8,51.84c-0.53,0.04-1-0.37-1.03-0.9
	c-0.04-0.53,0.37-1,0.9-1.03c0.53-0.04,1,0.37,1.03,0.9C131.73,51.34,131.33,51.8,130.8,51.84z"/>
<path class="st2" d="M76,76.93"/>
<path class="st1" d="M151.86,127.95H136.9l-0.13-0.07l0-11.48v-3.21l0-0.01l0-12.41c0-4.87,0-9.73,0-12.66
	c0-0.41-0.16-0.77-0.49-1.02c-0.23-0.18-0.72-0.28-1.28,0.17c-1,0.81-4.65,4.92-4.58,16.68c0.03,2.72,0.67,6.42,1.18,8.26
	s1.05,2.25,1.46,2.89l-0.48,12.85l0,0h-12.09l0,0l-0.1-25.66c2.05-0.11,3.78-0.75,3.78-4.17l0-10.43c0-0.48-0.56-0.87-1.25-0.87
	c-0.69,0-1.25,0.39-1.25,0.87v9.67c0,0.48-0.5,0.87-1.13,0.87c-0.62,0-1.12-0.39-1.12-0.87l0-9.67c0-0.48-0.56-0.87-1.25-0.87
	c-0.69,0-1.25,0.39-1.25,0.87l-0.01,9.67c0,0.48-0.5,0.87-1.12,0.87c-0.62,0-1.12-0.39-1.12-0.87l0.01-9.67
	c0-0.48-0.56-0.87-1.24-0.87c-0.69,0-1.25,0.39-1.25,0.87l0,10.44c0,3.41,1.74,4.05,3.78,4.16l-0.1,25.66l0,0h-12.37l0,0
	c-0.72-1.18-4.05-2.51-6.02-3.63v-13.43c4.71-1.71,8.33-11.85,8.33-19.75c0-1.45-0.12-2.85-0.35-4.19H86.75
	c-0.23,1.33-0.35,2.74-0.35,4.19c0,7.9,3.62,18.04,8.33,19.75v13.38c-1.95,1.1-5.13,2.51-5.89,3.68l0,0H75.89"/>
<rect id="_x3C_Slice_x3E_" class="st3" width="152" height="158.92"/>
</svg>
